<svg xmlns="http://www.w3.org/2000/svg" xmlns:xlink="http://www.w3.org/1999/xlink" viewBox="0,0,256,256" width="200px" height="200px" fill-rule="nonzero"><g fill="none" fill-rule="nonzero" stroke="none" stroke-width="1" stroke-linecap="butt" stroke-linejoin="miter" stroke-miterlimit="10" stroke-dasharray="" stroke-dashoffset="0" font-family="none" font-weight="none" font-size="none" text-anchor="none" style="mix-blend-mode: normal"><g transform="scale(2.56,2.56)"><path d="M13,27c-1.10457,0 -2,0.89543 -2,2c0,1.10457 0.89543,2 2,2c1.10457,0 2,-0.89543 2,-2c0,-1.10457 -0.89543,-2 -2,-2z" fill="#781e60"></path><path d="M77,12c-0.55228,0 -1,0.44772 -1,1c0,0.55228 0.44772,1 1,1c0.55228,0 1,-0.44772 1,-1c0,-0.55228 -0.44772,-1 -1,-1z" fill="#980f92"></path><path d="M50,13c-20.43454,0 -37,16.56546 -37,37c0,20.43454 16.56546,37 37,37c20.43454,0 37,-16.56546 37,-37c0,-20.43454 -16.56546,-37 -37,-37z" fill="#ffc2f6"></path><path d="M83,11c-2.20914,0 -4,1.79086 -4,4c0,2.20914 1.79086,4 4,4c2.20914,0 4,-1.79086 4,-4c0,-2.20914 -1.79086,-4 -4,-4z" fill="#980f92"></path><path d="M87,22c-1.10457,0 -2,0.89543 -2,2c0,1.10457 0.89543,2 2,2c1.10457,0 2,-0.89543 2,-2c0,-1.10457 -0.89543,-2 -2,-2z" fill="#781e60"></path><path d="M81,74c-1.10457,0 -2,0.89543 -2,2c0,1.10457 0.89543,2 2,2c1.10457,0 2,-0.89543 2,-2c0,-1.10457 -0.89543,-2 -2,-2zM15,59c-2.20914,0 -4,1.79086 -4,4c0,2.20914 1.79086,4 4,4c2.20914,0 4,-1.79086 4,-4c0,-2.20914 -1.79086,-4 -4,-4z" fill="#75005f"></path><path d="M25,85c-1.10457,0 -2,0.89543 -2,2c0,1.10457 0.89543,2 2,2c1.10457,0 2,-0.89543 2,-2c0,-1.10457 -0.89543,-2 -2,-2z" fill="#781e60"></path><path d="M18.5,51c-1.38071,0 -2.5,1.11929 -2.5,2.5c0,1.38071 1.11929,2.5 2.5,2.5c1.38071,0 2.5,-1.11929 2.5,-2.5c0,-1.38071 -1.11929,-2.5 -2.5,-2.5z" fill="#b9139a"></path><path d="M21,66c-0.55228,0 -1,0.44772 -1,1c0,0.55228 0.44772,1 1,1c0.55228,0 1,-0.44772 1,-1c0,-0.55228 -0.44772,-1 -1,-1z" fill="#980f92"></path><path d="M80,33c-0.55228,0 -1,0.44772 -1,1c0,0.55228 0.44772,1 1,1c0.55228,0 1,-0.44772 1,-1c0,-0.55228 -0.44772,-1 -1,-1z" fill="#b9139a"></path><path d="M50,26.042c-13.23164,0 -23.958,10.72636 -23.958,23.958c0,13.23164 10.72636,23.958 23.958,23.958c13.23164,0 23.958,-10.72636 23.958,-23.958c0,-13.23164 -10.72636,-23.958 -23.958,-23.958z" fill="#b678cf"></path><path d="M50,30.5c-10.76955,0 -19.5,8.73045 -19.5,19.5c0,10.76955 8.73045,19.5 19.5,19.5c10.76955,0 19.5,-8.73045 19.5,-19.5c0,-10.76955 -8.73045,-19.5 -19.5,-19.5z" fill="#fdfcee"></path><path d="M50,26.4c13.013,0 23.6,10.587 23.6,23.6c0,13.013 -10.587,23.6 -23.6,23.6c-13.013,0 -23.6,-10.587 -23.6,-23.6c0,-13.013 10.587,-23.6 23.6,-23.6M50,25c-13.807,0 -25,11.193 -25,25c0,13.807 11.193,25 25,25c13.807,0 25,-11.193 25,-25c0,-13.807 -11.193,-25 -25,-25z" fill="#c23aa5"></path><path d="M50,70c-11.028,0 -20,-8.972 -20,-20c0,-1.16 0.11,-2.333 0.338,-3.589c0.05,-0.272 0.313,-0.453 0.581,-0.403c0.272,0.049 0.452,0.31 0.403,0.582c-0.217,1.195 -0.322,2.311 -0.322,3.41c0,10.477 8.523,19 19,19c10.477,0 19,-8.523 19,-19c0,-10.477 -8.523,-19 -19,-19c-6.011,0 -11.728,2.914 -15.294,7.795c-0.163,0.225 -0.476,0.271 -0.698,0.109c-0.223,-0.163 -0.271,-0.476 -0.108,-0.699c3.752,-5.138 9.772,-8.205 16.1,-8.205c11.028,0 20,8.972 20,20c0,11.028 -8.972,20 -20,20z" fill="#c23aa5"></path><path d="M31.324,45c-0.047,0 -0.095,-0.006 -0.142,-0.021c-0.265,-0.078 -0.416,-0.356 -0.338,-0.621c0.188,-0.636 0.424,-1.288 0.743,-2.051c0.106,-0.255 0.4,-0.375 0.653,-0.269c0.255,0.106 0.375,0.399 0.269,0.654c-0.305,0.729 -0.529,1.348 -0.706,1.949c-0.064,0.218 -0.263,0.359 -0.479,0.359z" fill="#c23aa5"></path><path d="M50,38.25c3.262,0 6.297,1.315 8.546,3.702c0.284,0.301 0.269,0.777 -0.032,1.06c-0.14,0.132 -0.322,0.204 -0.514,0.204c-0.209,0 -0.403,-0.084 -0.546,-0.236c-1.962,-2.083 -4.609,-3.23 -7.454,-3.23c-5.496,0 -9.989,4.306 -10.228,9.803l-0.028,0.642l0.454,-0.454l1.271,-1.271c0.142,-0.142 0.33,-0.22 0.53,-0.22c0.2,0 0.389,0.078 0.53,0.22c0.292,0.292 0.292,0.768 0,1.06l-3,3c-0.142,0.142 -0.33,0.22 -0.53,0.22c-0.2,0 -0.389,-0.078 -0.53,-0.22l-3,-3c-0.292,-0.292 -0.292,-0.768 0,-1.06c0.142,-0.142 0.33,-0.22 0.53,-0.22c0.2,0 0.389,0.078 0.53,0.22l1.313,1.313l0.408,0.408l0.019,-0.576c0.209,-6.373 5.362,-11.365 11.731,-11.365" fill="#980f92"></path><path d="M50,38.5c3.193,0 6.163,1.287 8.364,3.623c0.189,0.201 0.179,0.518 -0.021,0.707c-0.093,0.088 -0.215,0.136 -0.343,0.136c-0.139,0 -0.268,-0.056 -0.364,-0.157c-2.01,-2.134 -4.722,-3.309 -7.636,-3.309c-5.631,0 -10.233,4.411 -10.477,10.042l-0.056,1.284l0.909,-0.909l1.271,-1.271c0.094,-0.094 0.22,-0.146 0.353,-0.146c0.133,0 0.259,0.052 0.353,0.147c0.094,0.095 0.147,0.22 0.147,0.353c0,0.133 -0.052,0.259 -0.147,0.353l-3,3c-0.094,0.095 -0.22,0.147 -0.353,0.147c-0.133,0 -0.259,-0.052 -0.354,-0.147l-3,-3c-0.094,-0.094 -0.146,-0.22 -0.146,-0.353c0,-0.133 0.052,-0.259 0.146,-0.353c0.095,-0.095 0.221,-0.147 0.354,-0.147c0.133,0 0.259,0.052 0.353,0.147l1.313,1.313l0.816,0.816l0.038,-1.153c0.204,-6.238 5.246,-11.123 11.48,-11.123M50,38c-6.484,0 -11.77,5.172 -11.98,11.606l-1.313,-1.313c-0.195,-0.195 -0.451,-0.293 -0.707,-0.293c-0.256,0 -0.512,0.098 -0.707,0.293c-0.391,0.391 -0.391,1.023 0,1.414l3,3c0.195,0.195 0.451,0.293 0.707,0.293c0.256,0 0.512,-0.098 0.707,-0.293l3,-3c0.391,-0.391 0.391,-1.023 0,-1.414c-0.195,-0.195 -0.451,-0.293 -0.707,-0.293c-0.256,0 -0.512,0.098 -0.707,0.293l-1.271,1.271c0.231,-5.311 4.611,-9.564 9.978,-9.564c2.775,0 5.357,1.119 7.272,3.151c0.197,0.209 0.462,0.314 0.728,0.314c0.246,0 0.493,-0.09 0.686,-0.272c0.402,-0.379 0.421,-1.012 0.042,-1.414c-2.297,-2.437 -5.396,-3.779 -8.728,-3.779z" fill="#c23aa5"></path><path d="M50,61.75c-3.262,0 -6.297,-1.315 -8.546,-3.702c-0.284,-0.301 -0.269,-0.777 0.032,-1.06c0.14,-0.132 0.322,-0.204 0.514,-0.204c0.209,0 0.403,0.084 0.546,0.236c1.962,2.083 4.609,3.23 7.454,3.23c5.496,0 9.989,-4.306 10.228,-9.803l0.028,-0.642l-0.454,0.454l-1.272,1.271c-0.142,0.142 -0.33,0.22 -0.53,0.22c-0.2,0 -0.389,-0.078 -0.53,-0.22c-0.292,-0.292 -0.292,-0.768 0,-1.06l3,-3c0.142,-0.142 0.33,-0.22 0.53,-0.22c0.2,0 0.389,0.078 0.53,0.22l3,3c0.292,0.292 0.292,0.768 0,1.06c-0.142,0.142 -0.33,0.22 -0.53,0.22c-0.2,0 -0.389,-0.078 -0.53,-0.22l-1.313,-1.313l-0.408,-0.408l-0.019,0.576c-0.208,6.373 -5.361,11.365 -11.73,11.365" fill="#980f92"></path><path d="M61,47.5c0.133,0 0.259,0.052 0.354,0.147l3,3c0.094,0.094 0.146,0.22 0.146,0.353c0,0.133 -0.052,0.259 -0.146,0.353c-0.095,0.095 -0.221,0.147 -0.354,0.147c-0.133,0 -0.259,-0.052 -0.353,-0.147l-1.313,-1.313l-0.816,-0.816l-0.038,1.153c-0.204,6.238 -5.246,11.123 -11.48,11.123c-3.193,0 -6.163,-1.287 -8.364,-3.623c-0.189,-0.201 -0.179,-0.518 0.021,-0.707c0.093,-0.088 0.215,-0.136 0.343,-0.136c0.139,0 0.268,0.056 0.364,0.157c2.01,2.134 4.722,3.309 7.636,3.309c5.631,0 10.233,-4.411 10.477,-10.042l0.056,-1.284l-0.909,0.909l-1.271,1.271c-0.094,0.094 -0.22,0.146 -0.353,0.146c-0.133,0 -0.259,-0.052 -0.353,-0.147c-0.095,-0.094 -0.147,-0.22 -0.147,-0.353c0,-0.133 0.052,-0.259 0.147,-0.353l3,-3c0.094,-0.095 0.22,-0.147 0.353,-0.147M61,47c-0.256,0 -0.512,0.098 -0.707,0.293l-3,3c-0.391,0.391 -0.391,1.023 0,1.414c0.195,0.195 0.451,0.293 0.707,0.293c0.256,0 0.512,-0.098 0.707,-0.293l1.271,-1.271c-0.231,5.311 -4.611,9.564 -9.978,9.564c-2.775,0 -5.357,-1.119 -7.272,-3.151c-0.197,-0.209 -0.462,-0.314 -0.728,-0.314c-0.246,0 -0.493,0.09 -0.686,0.272c-0.402,0.379 -0.421,1.012 -0.042,1.414c2.297,2.437 5.396,3.779 8.728,3.779c6.484,0 11.77,-5.172 11.98,-11.606l1.313,1.313c0.195,0.195 0.451,0.293 0.707,0.293c0.256,0 0.512,-0.098 0.707,-0.293c0.391,-0.391 0.391,-1.023 0,-1.414l-3,-3c-0.195,-0.195 -0.451,-0.293 -0.707,-0.293z" fill="#c23aa5"></path></g></g></svg>